<svg width="107" height="17" viewBox="0 0 107 17" fill="none" xmlns="http://www.w3.org/2000/svg">
<path fill-rule="evenodd" clip-rule="evenodd" d="M84.23 14.26C86.72 14.26 88.69 11.57 88.69 8.26V0.260002H90.69V8.26C90.69 12.66 87.81 16.21 84.27 16.21C80.73 16.21 77.85 12.66 77.85 8.26V0.260002H79.85V8.26C79.77 11.62 81.74 14.31 84.22 14.31L84.23 14.26ZM36.06 16.33H34.06V14.9C32.7702 15.8028 31.2344 16.288 29.66 16.29C25.9602 16.3148 22.7261 13.7993 21.8396 10.2072C20.953 6.61512 22.6452 2.88372 25.9316 1.18416C29.218 -0.515392 33.2411 0.260347 35.66 3.06L34.19 4.37C32.3509 2.31387 29.3468 1.77667 26.9092 3.06802C24.4715 4.35937 23.2284 7.14648 23.8965 9.82297C24.5645 12.4995 26.9714 14.3756 29.73 14.37C31.4117 14.3735 33.0112 13.6431 34.11 12.37H28.71V10.37H36.08L36.06 16.33ZM2.23001 0.390002H0.230011V16.31H8.23001V14.31H2.23001V0.390002ZM14.46 12.39C17.7737 12.39 20.46 9.70371 20.46 6.39C20.46 3.07629 17.7737 0.390002 14.46 0.390002C12.8687 0.390002 11.3426 1.02214 10.2174 2.14736C9.09215 3.27258 8.46001 4.7987 8.46001 6.39C8.46001 9.70371 11.1463 12.39 14.46 12.39ZM14.46 10.39C16.6691 10.39 18.46 8.59914 18.46 6.39C18.46 4.18086 16.6691 2.39 14.46 2.39C12.2509 2.39 10.46 4.18086 10.46 6.39C10.471 8.59133 12.2587 10.37 14.46 10.37V10.39ZM18.46 16.33V14.33H10.46V16.33H18.46ZM49.42 6.43C49.42 3.11629 46.7337 0.430002 43.42 0.430002L43.44 0.390002C41.8383 0.384627 40.3009 1.0199 39.1702 2.15437C38.0395 3.28884 37.4093 4.82831 37.42 6.43C37.42 9.74371 40.1063 12.43 43.42 12.43C46.7337 12.43 49.42 9.74371 49.42 6.43ZM43.42 10.43C45.6292 10.43 47.42 8.63914 47.42 6.43C47.42 4.22086 45.6292 2.43 43.42 2.43C41.2109 2.43 39.42 4.22086 39.42 6.43C39.4529 8.62348 41.2463 10.3812 43.44 10.37L43.42 10.43ZM47.42 16.37V14.37H39.42V16.37H47.42ZM51.55 0.390002H53.55V16.29H51.55V0.390002ZM58.32 0.390002H56.32V16.32H58.32V12.32H58.63C60.9154 12.5679 63.1415 11.4883 64.3619 9.54019C65.5822 7.59206 65.5822 5.11794 64.3619 3.16981C63.1415 1.22169 60.9154 0.142067 58.63 0.390002C58.527 0.379076 58.4231 0.379076 58.32 0.390002ZM58.32 2.39V2.43665L58.31 2.44L58.32 2.39ZM58.32 2.43665C58.4206 2.40333 58.5246 2.38098 58.63 2.37C60.1724 2.16462 61.6938 2.87227 62.5305 4.18413C63.3672 5.496 63.3672 7.174 62.5305 8.48587C61.6938 9.79774 60.1724 10.5054 58.63 10.3H58.32V2.43665ZM72.6969 1.56615L72.73 1.54L72.72 1.59L72.6969 1.56615ZM69.91 0.440002C70.9561 0.409115 71.9667 0.817911 72.6969 1.56615L71.25 2.71C70.7287 2.16531 69.939 1.97198 69.2251 2.21426C68.5111 2.45654 68.0022 3.09053 67.92 3.84V4C67.92 4.88 68.53 5.47 69.72 5.55C74.3 5.83 76.4 7.98 76.4 10.82V11C76.1585 13.2955 74.6007 15.2393 72.413 15.975C70.2253 16.7107 67.8094 16.1031 66.23 14.42L67.76 13.24C68.4808 14.0125 69.5046 14.4293 70.56 14.38C72.5612 14.4855 74.2899 12.9949 74.48 11V10.86C74.48 8.19 71.86 7.7 69.59 7.48C67.49 7.28 65.98 5.97 65.98 4.08V4C66.1338 1.95653 67.8613 0.391642 69.91 0.440002ZM104.04 16.26H106.04L106.02 0.390002L99.42 9.08L92.82 0.390002V16.29H94.82V6.36L99.43 12.36L104.04 6.36V16.26Z" fill="white"/>
</svg>
